<?xml version="1.0" encoding="UTF-8"?>
<svg version="1.1" xmlns="http://www.w3.org/2000/svg" width="293" height="264">
<path d="M0 0 C2.32174895 1.52114587 2.89756089 2.74731686 3.9375 5.3125 C4.04722993 10.03088711 0.73195111 13.19038736 -2.31942368 16.56551933 C-3.17853474 17.42278681 -4.0376458 18.28005428 -4.92279053 19.16329956 C-5.40398385 19.64620174 -5.88517718 20.12910391 -6.38095212 20.62663949 C-7.9807103 22.22966936 -9.58746859 23.8254856 -11.19433594 25.42138672 C-12.34805043 26.5745366 -13.50132377 27.72812798 -14.65419006 28.88212585 C-17.77542483 32.00393317 -20.90277649 35.11954634 -24.03127956 38.23406744 C-27.30334806 41.49361226 -30.56973339 44.75884212 -33.83673096 48.02346802 C-40.01976423 54.20029134 -46.20787692 60.37199975 -52.39783978 66.54187787 C-59.44649129 73.5681553 -66.4894477 80.60012955 -73.53193617 87.63258338 C-88.01497164 102.09472784 -102.50512894 116.54971857 -117 131 C-115.44252587 134.73684215 -113.14699892 137.08737224 -110.28648376 139.92037964 C-109.8036213 140.40142312 -109.32075884 140.8824666 -108.82326418 141.37808716 C-107.20578814 142.98715654 -105.58129196 144.58894749 -103.95678711 146.19091797 C-102.79510306 147.34385155 -101.63389542 148.49726533 -100.47312927 149.65112305 C-97.97342152 152.13434388 -95.47079077 154.61456804 -92.96598625 157.09264755 C-89.00604083 161.01124091 -85.05532594 164.93905068 -81.1063385 168.86868286 C-69.87597685 180.04145417 -58.63569677 191.20418041 -47.38061523 202.35205078 C-41.16406311 208.50954465 -34.95648673 214.67594223 -28.75863653 220.85226166 C-24.83499243 224.76125782 -20.90051967 228.65891049 -16.95775783 232.54861808 C-14.50781489 234.97083264 -12.0684112 237.40344767 -9.63189125 239.8391571 C-8.49984697 240.96663055 -7.36349911 242.08980186 -6.22258759 243.20830154 C-4.66543931 244.73608718 -3.12447434 246.27856939 -1.58653259 247.82565308 C-0.71987945 248.68509962 0.1467737 249.54454617 1.03968906 250.43003654 C3.30854281 253.40449896 3.89013194 255.2782899 4 259 C1.9375 261.9375 1.9375 261.9375 -1 264 C-6.41506818 263.87641006 -8.7881368 261.83918165 -12.53620911 258.09870911 C-13.05924124 257.58347693 -13.58227337 257.06824475 -14.12115496 256.53739947 C-15.86733385 254.81113388 -17.5951296 253.06758185 -19.32348633 251.32348633 C-20.57293082 250.0808182 -21.82343624 248.839216 -23.07492065 247.59860229 C-26.46853298 244.2277872 -29.84613486 240.84134289 -33.2204268 237.45120072 C-36.75321712 233.90575385 -40.29818787 230.3725201 -43.8412323 226.83732605 C-49.7891701 220.89848547 -55.72648629 214.94917859 -61.65795898 208.99389648 C-68.51625052 202.1083938 -75.39236924 195.24108917 -82.2780264 188.38296109 C-88.18882594 182.49484934 -94.0898282 176.59705198 -99.98274821 170.69104594 C-103.50261098 167.16338695 -107.02576726 163.6391958 -110.55777931 160.12369728 C-113.87779637 156.81812061 -117.1853488 153.50055759 -120.48366928 150.17333603 C-121.69637235 148.95402 -122.91335366 147.73894198 -124.13486671 146.52845192 C-125.80131502 144.87566126 -127.45160604 143.20824719 -129.09870911 141.53620911 C-130.02653607 140.60649701 -130.95436304 139.67678492 -131.91030598 138.71889973 C-134.271602 135.64661879 -134.9660691 133.86193224 -135 130 C-133.98471928 128.08971405 -133.98471928 128.08971405 -132.3061676 126.38171387 C-131.65214525 125.6994725 -130.9981229 125.01723114 -130.32428169 124.3143158 C-129.55726873 123.55059158 -128.79025578 122.78686737 -128 122 C-127.14809523 121.12102554 -126.29619045 120.24205109 -125.41847038 119.33644104 C-122.33867873 116.16259737 -119.22040425 113.02773373 -116.10131836 109.89257812 C-114.90790204 108.68960539 -113.71465411 107.48646557 -112.52156067 106.28317261 C-108.63152872 102.36200756 -104.73615904 98.44617032 -100.83984375 94.53125 C-100.17559741 93.86370634 -99.51135108 93.19616268 -98.82697606 92.50839043 C-92.55944457 86.21012741 -86.28989009 79.91388475 -80.01547909 73.62247467 C-72.00467701 65.58970571 -64.00413978 57.54700374 -56.01707357 49.49063158 C-50.38912844 43.81551581 -44.74980027 38.15187299 -39.10185915 32.49665785 C-35.73179 29.12162907 -32.36698722 25.74171002 -29.0143261 22.34938049 C-25.86637243 19.16466247 -22.7046054 15.99435056 -19.53156853 12.83462906 C-18.36937719 11.67238364 -17.21232212 10.50497622 -16.06082535 9.33213425 C-14.48938228 7.73312704 -12.90057797 6.15366198 -11.30601501 4.57775879 C-9.97844382 3.24383968 -9.97844382 3.24383968 -8.624053 1.88297272 C-5.46387295 -0.38471502 -3.80918975 -0.49343292 0 0 Z " fill="#4471C3" transform="translate(135,0)"/>
<path d="M0 0 C2.35705566 1.55691719 2.35705566 1.55691719 4.63476562 3.76785278 C5.49948486 4.5953516 6.3642041 5.42285042 7.25512695 6.27542496 C8.16093506 7.17453472 9.06674316 8.07364449 10 9 C11.36741333 10.33194208 11.36741333 10.33194208 12.76245117 11.69079208 C15.81400006 14.67433945 18.82908152 17.6936246 21.84375 20.71435547 C22.99446903 21.86371606 24.14539994 23.01286456 25.29652405 24.16181946 C28.39126771 27.25204504 31.48288942 30.3453757 34.57378006 33.43945456 C37.81843354 36.68665665 41.06554519 39.93139922 44.31225586 43.17654419 C49.75407636 48.61655208 55.19379953 54.05865047 60.63232422 59.50195312 C66.91990572 65.79499468 73.21110734 72.08439996 79.50416374 78.37196624 C84.91850696 83.78177523 90.33090388 89.19352565 95.74167061 94.60691178 C98.96883622 97.83563599 102.19667286 101.06368156 105.42626953 104.28997421 C108.45569104 107.31651188 111.48266501 110.34547613 114.50774956 113.3763485 C115.61870987 114.48863282 116.73052529 115.60006378 117.84324837 116.71058464 C119.35949002 118.22410125 120.87262979 119.74065217 122.38500977 121.25802612 C123.23297623 122.10636961 124.08094269 122.9547131 124.9546051 123.82876396 C127.43162167 126.45817681 128.88328457 128.22324857 129.42660809 131.83911419 C128.87437199 135.93082109 127.0217902 137.81155884 124.17427063 140.57417297 C123.65510376 141.10128866 123.13593688 141.62840434 122.60103768 142.17149323 C120.85780502 143.93397428 119.09393665 145.67420575 117.3293457 147.4152832 C116.07512793 148.67435688 114.8222035 149.93472004 113.57048035 151.1962738 C110.16665157 154.61892714 106.7442658 158.02245031 103.317734 161.42235589 C99.73637784 164.98109418 96.17044634 168.5552287 92.6023407 172.12724304 C86.60765208 178.12369797 80.60110836 184.10807174 74.5871582 190.08520508 C67.6319102 196.99811708 60.69448614 203.92852184 53.76661998 210.86886722 C47.10503587 217.54183654 40.43217417 224.2034115 33.75368309 230.85945702 C30.9101779 233.69366745 28.07048391 236.53161771 25.23372841 239.37258339 C21.89329324 242.71678296 18.54304688 246.05083377 15.18492317 249.37726784 C13.95317286 250.6005255 12.72480703 251.82720187 11.50008011 253.0574913 C9.82933085 254.73467595 8.14680329 256.39907103 6.46064758 258.06074524 C5.73543182 258.79729897 5.73543182 258.79729897 4.99556524 259.54873258 C2.13528295 262.33582212 0.03833124 263.79713285 -4 264 C-6.85813885 262.76580368 -8.52681569 261.94636863 -9.9375 259.125 C-10.05507624 255.12740775 -8.4280411 252.50256711 -5.87981987 249.51067638 C-4.99674219 248.63036408 -4.11366451 247.75005178 -3.2038269 246.84306335 C-2.4662242 246.10161574 -2.4662242 246.10161574 -1.71372044 245.34518939 C-0.06862902 243.69516718 1.58693461 242.0560781 3.24267578 240.41674805 C4.42586617 239.23440408 5.60839595 238.05139872 6.79031372 236.86778259 C9.99828599 233.65894955 13.21542423 230.4594507 16.43427896 227.26153922 C19.79755407 223.91701697 23.15233632 220.56399801 26.50802612 217.21186829 C32.86267336 210.86654558 39.2249293 204.52890904 45.58994949 198.19399339 C52.83639935 190.98107476 60.07433324 183.75963646 67.31156182 176.53746736 C82.19824683 161.68214062 97.0956021 146.83755388 112 132 C106.66542164 125.50489276 100.73931491 119.65387518 94.76220703 113.75976562 C93.62805852 112.637376 92.49419058 111.51470279 91.36058044 110.39176941 C88.93088746 107.98546504 86.49990091 105.58047772 84.06808853 103.17631531 C80.22289116 99.37345355 76.38485922 95.56341595 72.54855347 91.75158691 C71.89972297 91.10694473 71.25089247 90.46230254 70.58240044 89.79812574 C69.25648078 88.48070835 67.93058456 87.16326735 66.60471129 85.84580326 C57.68121537 76.9791698 48.75373638 68.1167186 39.80371094 59.27685547 C33.7543591 53.30185822 27.71745684 47.31459282 21.69476783 41.31271696 C18.51036177 38.1402938 15.31990358 34.97453593 12.11413956 31.82368469 C9.10309809 28.86401504 6.10873608 25.88845609 3.12640572 22.8998661 C2.0295425 21.8065262 0.92666034 20.71918658 -0.18257713 19.63840294 C-1.69658546 18.16148316 -3.18743842 16.66447147 -4.67453003 15.16052246 C-5.51478666 14.3280172 -6.3550433 13.49551193 -7.22076225 12.63777924 C-9.52160616 9.22670149 -9.41666019 7.03452651 -9 3 C-6.82158255 -0.75171894 -4.03727461 -0.38419131 0 0 Z " fill="#4371C3" transform="translate(164,0)"/>
</svg>
